name C:\Users\u0101727\Documents\MyRepositories\upper-imu-dc\Results\main_tracking\Case_41\FLX01_orientations_groundFrame.mot
datacolumns 13
datarows 29
range 3.51000000 3.79000000
endheader 
time	radius_imu_[0][0]	radius_imu_[0][1]	radius_imu_[0][2]	radius_imu_[1][0]	radius_imu_[1][1]	radius_imu_[1][2]	radius_imu_[2][0]	radius_imu_[2][1]	radius_imu_[2][2]	radius_imu_x	radius_imu_y	radius_imu_z	
          3.51000000	          0.95323215	         -0.12640393	         -0.27453690	         -0.05188592	         -0.96329801	          0.26337198	         -0.29775211	         -0.23681004	         -0.92480522	         -2.86415103	         -0.27810807	          0.13183645	
          3.52000000	          0.95335415	         -0.12725853	         -0.27371726	         -0.05289369	         -0.96318553	          0.26358280	         -0.29718366	         -0.23680984	         -0.92498809	         -2.86399230	         -0.27725577	          0.13270060	
          3.53000000	          0.95347602	         -0.12810041	         -0.27289881	         -0.05387152	         -0.96305942	          0.26384543	         -0.29661648	         -0.23686882	         -0.92515503	         -2.86377731	         -0.27640493	          0.13355124	
          3.54000000	          0.95359943	         -0.12892279	         -0.27207911	         -0.05481360	         -0.96292028	          0.26415904	         -0.29604661	         -0.23698828	         -0.92530695	         -2.86350720	         -0.27555299	          0.13438118	
          3.55000000	          0.95372622	         -0.12971966	         -0.27125470	         -0.05571567	         -0.96276912	          0.26452106	         -0.29546923	         -0.23716754	         -0.92544557	         -2.86318506	         -0.27469637	          0.13518397	
          3.56000000	          0.95385828	         -0.13048584	         -0.27042159	         -0.05657499	         -0.96260725	          0.26492743	         -0.29487906	         -0.23740412	         -0.92557313	         -2.86281563	         -0.27383091	          0.13595406	
          3.57000000	          0.95399734	         -0.13121717	         -0.26957582	         -0.05739016	         -0.96243629	          0.26537287	         -0.29427103	         -0.23769402	         -0.92569224	         -2.86240496	         -0.27295252	          0.13668692	
          3.58000000	          0.95414477	         -0.13191057	         -0.26871427	         -0.05816093	         -0.96225795	          0.26585135	         -0.29364105	         -0.23803201	         -0.92580543	         -2.86195983	         -0.27205796	          0.13737923	
          3.59000000	          0.95430125	         -0.13256424	         -0.26783548	         -0.05888798	         -0.96207401	          0.26635655	         -0.29298690	         -0.23841210	         -0.92591487	         -2.86148719	         -0.27114573	          0.13802905	
          3.60000000	          0.95446662	         -0.13317774	         -0.26694035	         -0.05957268	         -0.96188610	          0.26688240	         -0.29230901	         -0.23882799	         -0.92602194	         -2.86099352	         -0.27021678	          0.13863599	
          3.61000000	          0.95463968	         -0.13375218	         -0.26603275	         -0.06021693	         -0.96169567	          0.26742354	         -0.29161103	         -0.23927345	         -0.92612700	         -2.86048429	         -0.26927513	          0.13920138	
          3.62000000	          0.95481811	         -0.13429028	         -0.26511977	         -0.06082305	         -0.96150380	          0.26797574	         -0.29090021	         -0.23974270	         -0.92622919	         -2.85996348	         -0.26832814	          0.13972837	
          3.63000000	          0.95499848	         -0.13479647	         -0.26421170	         -0.06139376	         -0.96131115	          0.26853619	         -0.29018738	         -0.24023071	         -0.92632634	         -2.85943327	         -0.26738648	          0.14022205	
          3.64000000	          0.95517634	         -0.13527693	         -0.26332170	         -0.06193226	         -0.96111789	          0.26910370	         -0.28948672	         -0.24073338	         -0.92641507	         -2.85889386	         -0.26646381	          0.14068943	
          3.65000000	          0.95534638	         -0.13573965	         -0.26246532	         -0.06244240	         -0.96092368	          0.26967876	         -0.28881524	         -0.24124766	         -0.92649087	         -2.85834349	         -0.26557621	          0.14113951	
          3.66000000	          0.95550264	         -0.13619437	         -0.26165971	         -0.06292882	         -0.96072766	          0.27026344	         -0.28819208	         -0.24177150	         -0.92654836	         -2.85777848	         -0.26474142	          0.14158319	
          3.67000000	          0.95563868	         -0.13665257	         -0.26092294	         -0.06339713	         -0.96052847	          0.27086133	         -0.28763781	         -0.24230380	         -0.92658155	         -2.85719354	         -0.26397813	          0.14203320	
          3.68000000	          0.95574786	         -0.13712735	         -0.26027318	         -0.06385417	         -0.96032430	          0.27147723	         -0.28717361	         -0.24284425	         -0.92658404	         -2.85658201	         -0.26330512	          0.14250396	
          3.69000000	          0.95582344	         -0.13763330	         -0.25972798	         -0.06430805	         -0.96011294	          0.27211690	         -0.28682054	         -0.24339311	         -0.92654939	         -2.85593623	         -0.26274050	          0.14301147	
          3.70000000	          0.95585886	         -0.13818638	         -0.25930360	         -0.06476834	         -0.95989188	          0.27278681	         -0.28659884	         -0.24395102	         -0.92647126	         -2.85524792	         -0.26230107	          0.14357307	
          3.71000000	          0.95584785	         -0.13880362	         -0.25901436	         -0.06524599	         -0.95965834	          0.27349376	         -0.28652722	         -0.24451877	         -0.92634374	         -2.85450850	         -0.26200160	          0.14420717	
          3.72000000	          0.95578456	         -0.13950289	         -0.25887220	         -0.06575337	         -0.95940937	          0.27424470	         -0.28662234	         -0.24509713	         -0.92616145	         -2.85370944	         -0.26185441	          0.14493302	
          3.73000000	          0.95566372	         -0.14030259	         -0.25888615	         -0.06630407	         -0.95914193	          0.27504642	         -0.28689829	         -0.24568668	         -0.92591977	         -2.85284254	         -0.26186886	          0.14577033	
          3.74000000	          0.95548070	         -0.14122131	         -0.25906209	         -0.06691276	         -0.95885292	          0.27590536	         -0.28736616	         -0.24628768	         -0.92561497	         -2.85190020	         -0.26205102	          0.14673896	
          3.75000000	          0.95523162	         -0.14227753	         -0.25940251	         -0.06759500	         -0.95853926	          0.27682739	         -0.28803381	         -0.24689997	         -0.92524425	         -2.85087561	         -0.26240349	          0.14785858	
          3.76000000	          0.95491332	         -0.14348929	         -0.25990646	         -0.06836697	         -0.95819794	          0.27781769	         -0.28890570	         -0.24752280	         -0.92480591	         -2.84976298	         -0.26292533	          0.14914832	
          3.77000000	          0.95452342	         -0.14487389	         -0.26056976	         -0.06924519	         -0.95782606	          0.27888052	         -0.28998301	         -0.24815478	         -0.92429923	         -2.84855768	         -0.26361230	          0.15062656	
          3.78000000	          0.95406013	         -0.14644769	         -0.26138542	         -0.07024625	         -0.95742087	          0.28001917	         -0.29126402	         -0.24879378	         -0.92372449	         -2.84725631	         -0.26445725	          0.15231060	
          3.79000000	          0.95352220	         -0.14822588	         -0.26234424	         -0.07138645	         -0.95697981	          0.28123586	         -0.29274457	         -0.24943682	         -0.92308282	         -2.84585676	         -0.26545073	          0.15421659	
